<svg width="191" height="100" viewBox="0 0 191 100" fill="none" xmlns="http://www.w3.org/2000/svg">
<rect width="191" height="100" fill="white"/>
<g clip-path="url(#clip0_18_2)">
<path d="M53.3797 35.1875L53.3969 35.199L53.4149 35.2091L56.0688 36.691C56.2641 36.8262 56.4051 37.0266 56.4662 37.2565C56.5288 37.4921 56.5032 37.7424 56.3942 37.9605L56.3942 37.9605L56.3916 37.9658L46.9142 57.5H19.0855L9.60816 37.9695L9.60819 37.9695L9.60555 37.9642C9.49654 37.7462 9.47094 37.4958 9.53355 37.2602C9.59467 37.0302 9.73576 36.8298 9.93119 36.6946L12.5911 35.205L12.6081 35.1955L12.6242 35.1847C13.0597 34.8942 13.6551 35.0083 14.0161 35.4922C14.5116 36.1625 15.1683 36.6968 15.9252 37.0457C16.6822 37.3947 17.5151 37.547 18.3466 37.4885C21.0491 37.3049 22.9999 34.8921 22.9999 32.2563C22.9999 32.0557 23.0796 31.8633 23.2214 31.7215C23.3632 31.5797 23.5556 31.5 23.7561 31.5H27.3908C27.7516 31.5 28.045 31.7375 28.1072 32.0324C28.3437 33.1548 28.9588 34.1618 29.8496 34.8846C30.7404 35.6074 31.8527 36.0018 32.9999 36.0018C34.1471 36.0018 35.2593 35.6074 36.1502 34.8846C37.041 34.1618 37.6562 33.1546 37.8926 32.0321C37.9549 31.7387 38.2516 31.5 38.6089 31.5H42.2436C42.4442 31.5 42.6366 31.5797 42.7784 31.7215C42.9202 31.8633 42.9999 32.0557 42.9999 32.2563C42.9999 34.6639 44.6067 36.9578 47.0478 37.4115C47.9635 37.5895 48.9109 37.5058 49.7812 37.1699C50.6519 36.8338 51.4102 36.2589 51.9689 35.5113C52.3458 35.0119 52.945 34.8953 53.3797 35.1875ZM35.6388 28.1995C34.8577 28.7214 33.9393 29 32.9999 29C31.7401 29 30.5319 28.4996 29.6411 27.6088C28.7503 26.718 28.2499 25.5098 28.2499 24.25C28.2499 23.3105 28.5285 22.3922 29.0504 21.611C29.5723 20.8299 30.3142 20.2211 31.1821 19.8616C32.0501 19.5021 33.0052 19.408 33.9266 19.5913C34.848 19.7746 35.6943 20.2269 36.3586 20.8912C37.0229 21.5555 37.4753 22.4019 37.6586 23.3233C37.8419 24.2447 37.7478 25.1998 37.3883 26.0677C37.0288 26.9357 36.42 27.6775 35.6388 28.1995ZM15.7928 61.7929C15.9803 61.6054 16.2347 61.5 16.4999 61.5H49.4999C49.7651 61.5 50.0195 61.6054 50.207 61.7929C50.3945 61.9804 50.4999 62.2348 50.4999 62.5V65.5C50.4999 65.7652 50.3945 66.0196 50.207 66.2071C50.0195 66.3946 49.7651 66.5 49.4999 66.5H16.4999C16.2347 66.5 15.9803 66.3946 15.7928 66.2071C15.6052 66.0196 15.4999 65.7652 15.4999 65.5V62.5C15.4999 62.2348 15.6052 61.9804 15.7928 61.7929Z" fill="#4BB0E7" stroke="#121212"/>
</g>
<rect x="69.5" y="19.5" width="109" height="16" rx="2.5" stroke="#626262"/>
<rect x="69.5" y="41.5" width="109" height="16" rx="2.5" stroke="#626262"/>
<rect x="69.5" y="63.5" width="109" height="16" rx="2.5" stroke="#626262"/>
<path d="M78.4205 26.4103L78.3692 26.9231H77.4359L77.3128 28.1538H78.2359L78.1846 28.6667H77.2615L77.1282 30H76.5744L76.7077 28.6667H75.4769L75.3436 30H74.7897L74.9231 28.6667H74L74.0513 28.1538H74.9744L75.1077 26.9231H74.1846L74.2359 26.4103H75.159L75.3026 25.0769H75.8462L75.7026 26.4103H76.9333L77.0769 25.0769H77.6308L77.4872 26.4103H78.4205ZM75.5282 28.1538H76.759L76.8821 26.9231H75.6513L75.5282 28.1538ZM79.5373 30V25.641H78.9219V25.0769H80.1526V30H79.5373Z" fill="#626262"/>
<path d="M157.615 30V25.641H157V25.0769H158.231V30H157.615ZM161.922 29.3333H159.461V28.841L162.035 25.0769H162.538V28.7692H163.358V29.3333H162.538V30.6154H161.922V29.3333ZM160.148 28.7692H161.922V26.1744H161.902L160.148 28.7487V28.7692ZM163.766 30.441C164.203 30.5915 164.648 30.6667 165.099 30.6667C165.55 30.6667 165.899 30.5573 166.145 30.3385C166.391 30.1265 166.514 29.8188 166.514 29.4154C166.514 29.0256 166.398 28.735 166.166 28.5436C165.94 28.3521 165.602 28.2564 165.15 28.2564H164.791V27.7128H165.017C165.407 27.7128 165.704 27.6171 165.909 27.4256C166.121 27.2342 166.227 26.9504 166.227 26.5744C166.227 26.2667 166.145 26.0342 165.981 25.8769C165.817 25.7197 165.578 25.641 165.263 25.641C164.942 25.641 164.648 25.706 164.381 25.8359V26.4103H163.786V25.5179C164.258 25.2239 164.76 25.0769 165.294 25.0769C165.793 25.0769 166.19 25.2068 166.484 25.4667C166.784 25.7265 166.935 26.0752 166.935 26.5128C166.935 27.1419 166.603 27.6 165.94 27.8872V27.8974C166.357 28 166.678 28.1812 166.904 28.441C167.137 28.694 167.253 29.012 167.253 29.3949C167.253 29.9419 167.048 30.3829 166.637 30.7179C166.234 31.0598 165.711 31.2308 165.068 31.2308C164.617 31.2308 164.183 31.1624 163.766 31.0256V30.441ZM171.557 30H168.173V29.5179C169.028 28.8615 169.66 28.2838 170.07 27.7846C170.481 27.2786 170.686 26.8274 170.686 26.4308C170.686 26.2051 170.61 26.0171 170.46 25.8667C170.316 25.7162 170.07 25.641 169.722 25.641C169.407 25.641 169.123 25.7026 168.87 25.8256V26.4103H168.275V25.5179C168.761 25.2239 169.27 25.0769 169.804 25.0769C170.275 25.0769 170.652 25.1897 170.932 25.4154C171.212 25.6342 171.352 25.9385 171.352 26.3282C171.352 26.7795 171.151 27.2718 170.747 27.8051C170.344 28.3385 169.793 28.8821 169.096 29.4359H171.557V30Z" fill="#626262"/>
<path d="M157.615 53V48.641H157V48.0769H158.231V53H157.615ZM159.461 53.441C159.899 53.5915 160.343 53.6667 160.794 53.6667C161.246 53.6667 161.594 53.5573 161.84 53.3385C162.087 53.1265 162.21 52.8188 162.21 52.4154C162.21 52.0256 162.093 51.735 161.861 51.5436C161.635 51.3521 161.297 51.2564 160.846 51.2564H160.487V50.7128H160.712C161.102 50.7128 161.399 50.6171 161.605 50.4256C161.816 50.2342 161.922 49.9504 161.922 49.5744C161.922 49.2667 161.84 49.0342 161.676 48.8769C161.512 48.7197 161.273 48.641 160.958 48.641C160.637 48.641 160.343 48.706 160.076 48.8359V49.4103H159.481V48.5179C159.953 48.2239 160.456 48.0769 160.989 48.0769C161.488 48.0769 161.885 48.2068 162.179 48.4667C162.48 48.7265 162.63 49.0752 162.63 49.5128C162.63 50.1419 162.299 50.6 161.635 50.8872V50.8974C162.052 51 162.374 51.1812 162.599 51.441C162.832 51.694 162.948 52.012 162.948 52.3949C162.948 52.9419 162.743 53.3829 162.333 53.7179C161.929 54.0598 161.406 54.2308 160.764 54.2308C160.312 54.2308 159.878 54.1624 159.461 54.0256V53.441ZM164.873 54.2308C164.887 53.7385 164.955 53.2393 165.078 52.7333C165.208 52.2274 165.366 51.7316 165.55 51.2462C165.735 50.7607 165.937 50.2957 166.155 49.8513C166.374 49.4068 166.59 49.0034 166.802 48.641H164.35V49.4103H163.766V48.0769H167.458V48.5487C167.239 48.9248 167.02 49.3316 166.802 49.7692C166.583 50.2068 166.388 50.6684 166.217 51.1538C166.046 51.6393 165.902 52.1419 165.786 52.6615C165.677 53.1812 165.619 53.7043 165.612 54.2308H164.873ZM168.275 53.4718C168.658 53.6017 169.014 53.6667 169.342 53.6667C169.814 53.6667 170.176 53.5368 170.429 53.2769C170.689 53.0171 170.819 52.6444 170.819 52.159C170.819 51.6872 170.689 51.335 170.429 51.1026C170.176 50.8632 169.787 50.7436 169.26 50.7436C169.021 50.7436 168.761 50.7641 168.481 50.8051V48.0769H171.352V48.641H169.137V50.2103C169.253 50.1966 169.376 50.1897 169.506 50.1897C170.163 50.1897 170.669 50.3538 171.024 50.6821C171.38 51.0103 171.557 51.4889 171.557 52.1179C171.557 52.7607 171.349 53.2735 170.932 53.6564C170.522 54.0393 169.985 54.2308 169.322 54.2308C168.966 54.2308 168.617 54.1795 168.275 54.0769V53.4718Z" fill="#626262"/>
<path d="M157.615 74V69.641H157V69.0769H158.231V74H157.615ZM162.948 74H159.564V73.5179C160.418 72.8615 161.051 72.2838 161.461 71.7846C161.871 71.2786 162.076 70.8274 162.076 70.4308C162.076 70.2051 162.001 70.0171 161.851 69.8667C161.707 69.7162 161.461 69.641 161.112 69.641C160.798 69.641 160.514 69.7026 160.261 69.8256V70.4103H159.666V69.5179C160.152 69.2239 160.661 69.0769 161.194 69.0769C161.666 69.0769 162.042 69.1897 162.322 69.4154C162.603 69.6342 162.743 69.9385 162.743 70.3282C162.743 70.7795 162.541 71.2718 162.138 71.8051C161.734 72.3385 161.184 72.8821 160.487 73.4359H162.948V74ZM163.971 71.5385C163.971 70.7863 164.152 70.188 164.514 69.7436C164.877 69.2991 165.362 69.0769 165.971 69.0769C166.538 69.0769 166.996 69.2923 167.345 69.7231C167.694 70.1538 167.868 70.7385 167.868 71.4769C167.868 72.2359 167.687 72.8479 167.325 73.3128C166.969 73.7709 166.494 74 165.899 74C165.311 74 164.843 73.7744 164.494 73.3231C164.145 72.8718 163.971 72.2769 163.971 71.5385ZM164.637 71.5077C164.637 72.1094 164.75 72.5812 164.976 72.9231C165.202 73.265 165.516 73.4359 165.919 73.4359C166.33 73.4359 166.644 73.2615 166.863 72.9128C167.089 72.5641 167.202 72.0923 167.202 71.4974C167.202 70.9231 167.096 70.4718 166.884 70.1436C166.678 69.8085 166.36 69.641 165.93 69.641C165.519 69.641 165.202 69.8017 164.976 70.1231C164.75 70.4444 164.637 70.906 164.637 71.5077ZM168.893 71.5385C168.893 70.7863 169.074 70.188 169.436 69.7436C169.799 69.2991 170.284 69.0769 170.893 69.0769C171.46 69.0769 171.918 69.2923 172.267 69.7231C172.616 70.1538 172.79 70.7385 172.79 71.4769C172.79 72.2359 172.609 72.8479 172.246 73.3128C171.891 73.7709 171.416 74 170.821 74C170.233 74 169.764 73.7744 169.416 73.3231C169.067 72.8718 168.893 72.2769 168.893 71.5385ZM169.559 71.5077C169.559 72.1094 169.672 72.5812 169.898 72.9231C170.123 73.265 170.438 73.4359 170.841 73.4359C171.252 73.4359 171.566 73.2615 171.785 72.9128C172.011 72.5641 172.123 72.0923 172.123 71.4974C172.123 70.9231 172.017 70.4718 171.805 70.1436C171.6 69.8085 171.282 69.641 170.852 69.641C170.441 69.641 170.123 69.8017 169.898 70.1231C169.672 70.4444 169.559 70.906 169.559 71.5077Z" fill="#626262"/>
<path d="M95.4359 28.9641L97.3026 24.4615H98.7692V25.0256H98.1538V29.4359H98.7692V30H96.9231V29.4359H97.5385V25.4154H97.4974L95.6 30H95.159L93.2718 25.4154H93.2308V29.4359H93.8462V30H92V29.4359H92.6154V25.0256H92V24.4615H93.5487L95.3949 28.9641H95.4359ZM99.5879 26.0513C100.101 25.812 100.624 25.6923 101.157 25.6923C101.622 25.6923 101.971 25.7983 102.203 26.0103C102.443 26.2222 102.562 26.5641 102.562 27.0359V29.4359H103.178V30H101.988L101.947 29.3744H101.916C101.547 29.7915 101.109 30 100.603 30C100.193 30 99.8785 29.8974 99.6597 29.6923C99.4409 29.4803 99.3315 29.1897 99.3315 28.8205C99.3315 27.9043 100.06 27.4462 101.516 27.4462H101.947V27.0154C101.947 26.7692 101.875 26.5812 101.732 26.4513C101.595 26.3214 101.373 26.2564 101.065 26.2564C100.614 26.2564 100.121 26.3761 99.5879 26.6154V26.0513ZM101.414 28.0103C100.47 28.0103 99.9982 28.2667 99.9982 28.7795C99.9982 28.9983 100.06 29.1624 100.183 29.2718C100.313 29.3812 100.497 29.4359 100.737 29.4359C101.174 29.4359 101.578 29.2274 101.947 28.8103V28.0103H101.414ZM103.688 29.4359H104.303V26.2564H103.688V25.6923H104.888L104.918 26.2974H104.929C105.318 25.894 105.77 25.6923 106.282 25.6923C106.693 25.6923 106.993 25.8085 107.185 26.041C107.383 26.2735 107.482 26.5949 107.482 27.0051V29.4359H108.098V30H106.252V29.4359H106.867V27.0769C106.867 26.7692 106.799 26.5573 106.662 26.441C106.525 26.3179 106.344 26.2564 106.118 26.2564C105.66 26.2564 105.26 26.4752 104.918 26.9128V29.4359H105.534V30H103.688V29.4359ZM110.886 29.4359C111.331 29.4359 111.768 29.2957 112.199 29.0154V29.6205C111.755 29.8735 111.29 30 110.804 30C110.189 30 109.703 29.8085 109.348 29.4256C108.992 29.0359 108.815 28.5299 108.815 27.9077C108.815 27.2103 108.989 26.6667 109.338 26.2769C109.693 25.8872 110.158 25.6923 110.732 25.6923C111.232 25.6923 111.618 25.8632 111.891 26.2051C112.165 26.5402 112.302 27.0085 112.302 27.6103V27.9282H109.481C109.502 28.4 109.621 28.7692 109.84 29.0359C110.066 29.3026 110.415 29.4359 110.886 29.4359ZM111.686 27.3641C111.652 26.6256 111.31 26.2564 110.661 26.2564C110.319 26.2564 110.052 26.3556 109.861 26.5538C109.676 26.7453 109.56 27.0154 109.512 27.3641H111.686ZM112.914 29.5385L115.191 26.2564H113.529V27.0256H112.914V25.6923H115.991V26.1538L113.714 29.4359H115.376V28.6667H115.991V30H112.914V29.5385ZM119.973 30L117.943 27.6923L119.461 26.2769V26.2564H118.866V25.6923H120.712V26.2564H120.179L118.702 27.6308L120.302 29.4359H120.917V30H119.973ZM116.609 29.4359H117.225V24.4103H116.609V23.8462H117.84V29.4359H118.456V30H116.609V29.4359ZM121.531 29.4359H122.147V26.2564H121.531V25.6923H122.762V29.4359H123.377V30H121.531V29.4359ZM121.942 24.6154C121.942 24.4581 121.983 24.335 122.065 24.2462C122.153 24.1573 122.266 24.1128 122.403 24.1128C122.54 24.1128 122.649 24.1573 122.731 24.2462C122.82 24.335 122.865 24.4479 122.865 24.5846C122.865 24.735 122.82 24.8547 122.731 24.9436C122.649 25.0325 122.54 25.0769 122.403 25.0769C122.266 25.0769 122.153 25.0325 122.065 24.9436C121.983 24.8547 121.942 24.7453 121.942 24.6154Z" fill="#121212"/>
<path d="M92 48.0256V47.4615H96.1026V49.1026H95.4872V48.0256H93.2308V49.8205H94.2564V49.2051H94.8718V51.0513H94.2564V50.3846H93.2308V52.4359H95.4872V51.359H96.1026V53H92V52.4359H92.6154V48.0256H92ZM98.9937 53H98.3475L97.0142 49.2564H96.5116V48.6923H98.1526V49.2564H97.6603L98.6962 52.2H98.727L99.8347 49.2564H99.3834V48.6923H100.819V49.2564H100.409L98.9937 53ZM101.432 49.0513C101.945 48.812 102.468 48.6923 103.001 48.6923C103.466 48.6923 103.815 48.7983 104.047 49.0103C104.286 49.2222 104.406 49.5641 104.406 50.0359V52.4359H105.021V53H103.832L103.791 52.3744H103.76C103.391 52.7915 102.953 53 102.447 53C102.037 53 101.722 52.8974 101.503 52.6923C101.285 52.4803 101.175 52.1897 101.175 51.8205C101.175 50.9043 101.903 50.4462 103.36 50.4462H103.791V50.0154C103.791 49.7692 103.719 49.5812 103.575 49.4513C103.439 49.3214 103.216 49.2564 102.909 49.2564C102.457 49.2564 101.965 49.3761 101.432 49.6154V49.0513ZM103.257 51.0103C102.314 51.0103 101.842 51.2667 101.842 51.7795C101.842 51.9983 101.903 52.1624 102.027 52.2718C102.156 52.3812 102.341 52.4359 102.58 52.4359C103.018 52.4359 103.421 52.2274 103.791 51.8103V51.0103H103.257ZM107.993 47.4103V46.8462H109.224V52.4359H109.839V53H108.649L108.608 52.4769H108.588C108.259 52.8256 107.883 53 107.459 53C106.96 53 106.547 52.8051 106.218 52.4154C105.897 52.0256 105.736 51.5299 105.736 50.9282C105.736 50.2513 105.914 49.7111 106.27 49.3077C106.632 48.8974 107.097 48.6923 107.665 48.6923C107.979 48.6923 108.287 48.7573 108.588 48.8872H108.608V47.4103H107.993ZM108.608 49.441C108.328 49.3179 108.027 49.2564 107.706 49.2564C107.275 49.2564 106.95 49.3897 106.731 49.6564C106.512 49.9162 106.403 50.3094 106.403 50.8359C106.403 51.3556 106.506 51.7521 106.711 52.0256C106.923 52.2991 107.22 52.4359 107.603 52.4359C108.006 52.4359 108.342 52.2752 108.608 51.9538V49.441ZM112.73 52.4359C113.174 52.4359 113.612 52.2957 114.043 52.0154V52.6205C113.598 52.8735 113.133 53 112.648 53C112.033 53 111.547 52.8085 111.192 52.4256C110.836 52.0359 110.658 51.5299 110.658 50.9077C110.658 50.2103 110.833 49.6667 111.181 49.2769C111.537 48.8872 112.002 48.6923 112.576 48.6923C113.075 48.6923 113.462 48.8632 113.735 49.2051C114.009 49.5402 114.145 50.0085 114.145 50.6103V50.9282H111.325C111.345 51.4 111.465 51.7692 111.684 52.0359C111.91 52.3026 112.258 52.4359 112.73 52.4359ZM113.53 50.3641C113.496 49.6256 113.154 49.2564 112.504 49.2564C112.163 49.2564 111.896 49.3556 111.704 49.5538C111.52 49.7453 111.404 50.0154 111.356 50.3641H113.53ZM115.066 49.8718C115.066 49.4957 115.219 49.2051 115.527 49C115.842 48.7949 116.248 48.6923 116.748 48.6923C117.171 48.6923 117.619 48.7675 118.091 48.9179V49.9231H117.476V49.3385C117.236 49.2769 116.977 49.2462 116.696 49.2462C116.423 49.2462 116.194 49.2906 116.009 49.3795C115.824 49.4684 115.732 49.6051 115.732 49.7897C115.732 49.8991 115.753 49.9915 115.794 50.0667C115.842 50.135 115.91 50.1966 115.999 50.2513C116.088 50.2991 116.201 50.347 116.337 50.3949C116.474 50.4427 116.631 50.494 116.809 50.5487C116.98 50.6034 117.151 50.6615 117.322 50.7231C117.493 50.7846 117.647 50.8598 117.783 50.9487C117.92 51.0376 118.03 51.1504 118.112 51.2872C118.201 51.4171 118.245 51.5812 118.245 51.7795C118.245 52.1624 118.084 52.4632 117.763 52.6821C117.442 52.894 117.018 53 116.491 53C116.019 53 115.561 52.9077 115.117 52.7231V51.7692H115.732V52.3538C115.985 52.4154 116.255 52.4462 116.542 52.4462C116.83 52.4462 117.072 52.4017 117.271 52.3128C117.476 52.2171 117.578 52.0701 117.578 51.8718C117.578 51.6598 117.486 51.506 117.301 51.4103C117.124 51.3145 116.871 51.2188 116.542 51.1231C116.371 51.0752 116.197 51.0205 116.019 50.959C115.848 50.8974 115.691 50.8222 115.548 50.7333C115.404 50.6376 115.288 50.5214 115.199 50.3846C115.11 50.2479 115.066 50.0769 115.066 49.8718ZM122.755 52.6718C122.324 52.8906 121.859 53 121.36 53C120.738 53 120.232 52.8154 119.842 52.4462C119.459 52.0769 119.268 51.5607 119.268 50.8974C119.268 50.2 119.469 49.6598 119.873 49.2769C120.283 48.8872 120.806 48.6923 121.442 48.6923C121.9 48.6923 122.338 48.7812 122.755 48.959V49.9231H122.139V49.3487C121.941 49.2803 121.695 49.2462 121.401 49.2462C120.929 49.2462 120.567 49.3795 120.314 49.6462C120.061 49.906 119.934 50.2821 119.934 50.7744C119.934 51.3214 120.061 51.7316 120.314 52.0051C120.567 52.2786 120.939 52.4154 121.432 52.4154C121.876 52.4154 122.317 52.2957 122.755 52.0564V52.6718ZM123.367 52.4359H123.983V47.4615H123.367V46.8462H124.598V49.2769H124.608C124.998 48.8872 125.449 48.6923 125.962 48.6923C126.372 48.6923 126.673 48.8085 126.865 49.041C127.063 49.2735 127.162 49.5949 127.162 50.0051V52.4359H127.777V53H125.931V52.4359H126.547V50.0769C126.547 49.7692 126.478 49.5573 126.342 49.441C126.205 49.3179 126.024 49.2564 125.798 49.2564C125.34 49.2564 124.94 49.4684 124.598 49.8923V52.4359H125.213V53H123.367V52.4359ZM128.289 52.4359H128.904V49.2564H128.289V48.6923H129.52V52.4359H130.135V53H128.289V52.4359ZM128.699 47.6154C128.699 47.4581 128.74 47.335 128.822 47.2462C128.911 47.1573 129.024 47.1128 129.161 47.1128C129.298 47.1128 129.407 47.1573 129.489 47.2462C129.578 47.335 129.622 47.4479 129.622 47.5846C129.622 47.735 129.578 47.8547 129.489 47.9436C129.407 48.0325 129.298 48.0769 129.161 48.0769C129.024 48.0769 128.911 48.0325 128.822 47.9436C128.74 47.8547 128.699 47.7453 128.699 47.6154ZM132.596 54.2821V54.8462H130.75V54.2821H131.365V49.2564H130.75V48.6923H131.94L131.981 49.1846H132.022C132.377 48.8564 132.767 48.6923 133.191 48.6923C133.683 48.6923 134.083 48.8872 134.391 49.2769C134.699 49.6598 134.853 50.1556 134.853 50.7641C134.853 51.4274 134.671 51.9675 134.309 52.3846C133.953 52.7949 133.495 53 132.935 53C132.613 53 132.302 52.935 132.001 52.8051L131.981 52.8154V54.2821H132.596ZM131.981 52.2615C132.234 52.3778 132.524 52.4359 132.853 52.4359C133.276 52.4359 133.605 52.3128 133.837 52.0667C134.07 51.8137 134.186 51.4137 134.186 50.8667C134.186 50.3538 134.08 49.9573 133.868 49.6769C133.663 49.3966 133.376 49.2564 133.006 49.2564C132.644 49.2564 132.302 49.4308 131.981 49.7795V52.2615ZM137.518 54.2821V54.8462H135.672V54.2821H136.287V49.2564H135.672V48.6923H136.862L136.903 49.1846H136.944C137.299 48.8564 137.689 48.6923 138.113 48.6923C138.605 48.6923 139.005 48.8872 139.313 49.2769C139.621 49.6598 139.774 50.1556 139.774 50.7641C139.774 51.4274 139.593 51.9675 139.231 52.3846C138.875 52.7949 138.417 53 137.856 53C137.535 53 137.224 52.935 136.923 52.8051L136.903 52.8154V54.2821H137.518ZM136.903 52.2615C137.156 52.3778 137.446 52.4359 137.774 52.4359C138.198 52.4359 138.527 52.3128 138.759 52.0667C138.992 51.8137 139.108 51.4137 139.108 50.8667C139.108 50.3538 139.002 49.9573 138.79 49.6769C138.585 49.3966 138.298 49.2564 137.928 49.2564C137.566 49.2564 137.224 49.4308 136.903 49.7795V52.2615ZM142.871 52.4359C143.315 52.4359 143.753 52.2957 144.183 52.0154V52.6205C143.739 52.8735 143.274 53 142.789 53C142.173 53 141.688 52.8085 141.332 52.4256C140.977 52.0359 140.799 51.5299 140.799 50.9077C140.799 50.2103 140.973 49.6667 141.322 49.2769C141.678 48.8872 142.142 48.6923 142.717 48.6923C143.216 48.6923 143.602 48.8632 143.876 49.2051C144.149 49.5402 144.286 50.0085 144.286 50.6103V50.9282H141.466C141.486 51.4 141.606 51.7692 141.825 52.0359C142.05 52.3026 142.399 52.4359 142.871 52.4359ZM143.671 50.3641C143.636 49.6256 143.295 49.2564 142.645 49.2564C142.303 49.2564 142.036 49.3556 141.845 49.5538C141.66 49.7453 141.544 50.0154 141.496 50.3641H143.671ZM147.565 49.4C147.422 49.3726 147.281 49.359 147.145 49.359C146.68 49.359 146.341 49.5744 146.129 50.0051V52.4359H146.745V53H144.898V52.4359H145.514V49.2564H144.898V48.6923H146.088L146.129 49.3179H146.15C146.416 48.9009 146.782 48.6923 147.247 48.6923C147.35 48.6923 147.456 48.7026 147.565 48.7231V49.4Z" fill="#121212"/>
<path d="M94.1949 71.1385L95.6615 69.0256H95.0769V68.4615H96.9231V69.0256H96.3077L94.4615 71.6923V73.4359H95.0769V74H93.2308V73.4359H93.8462V71.7128L92 69.0256H91.3846V68.4615H93.2308V69.0256H92.759L94.1744 71.1385H94.1949ZM96.5098 71.8667C96.5098 71.1966 96.6978 70.6667 97.0739 70.2769C97.45 69.8872 97.9286 69.6923 98.5098 69.6923C99.0842 69.6923 99.5423 69.8769 99.8842 70.2462C100.233 70.6085 100.407 71.1179 100.407 71.7744C100.407 72.4581 100.223 73.0017 99.8534 73.4051C99.491 73.8017 99.0158 74 98.4278 74C97.8534 74 97.3884 73.8085 97.0329 73.4256C96.6842 73.0427 96.5098 72.5231 96.5098 71.8667ZM97.1765 71.7744C97.1765 72.3214 97.2893 72.735 97.5149 73.0154C97.7406 73.2957 98.0654 73.4359 98.4893 73.4359C98.8927 73.4359 99.2004 73.3026 99.4124 73.0359C99.6312 72.7692 99.7406 72.3726 99.7406 71.8462C99.7406 71.3128 99.6312 70.9162 99.4124 70.6564C99.2004 70.3897 98.8756 70.2564 98.438 70.2564C98.0483 70.2564 97.7406 70.3795 97.5149 70.6256C97.2893 70.865 97.1765 71.2479 97.1765 71.7744ZM104.303 70.2564H103.688V69.6923H104.919V73.4359H105.534V74H104.345L104.303 73.4051H104.283C103.955 73.8017 103.534 74 103.021 74C102.604 74 102.286 73.894 102.068 73.6821C101.849 73.4701 101.739 73.1658 101.739 72.7692V70.2564H101.124V69.6923H102.355V72.6256C102.355 72.947 102.43 73.1624 102.58 73.2718C102.731 73.3812 102.926 73.4359 103.165 73.4359C103.63 73.4359 104.009 73.2444 104.303 72.8615V70.2564ZM106.815 72.2564C106.747 72.106 106.713 71.9453 106.713 71.7744C106.713 71.5761 106.771 71.3983 106.887 71.241C107.01 71.0838 107.164 70.9299 107.348 70.7795C107.554 70.6154 107.711 70.4581 107.82 70.3077C107.936 70.1573 107.995 69.9829 107.995 69.7846C107.995 69.5453 107.913 69.3607 107.748 69.2308C107.591 69.094 107.362 69.0256 107.061 69.0256C106.76 69.0256 106.456 69.0872 106.148 69.2103V68.6564C106.49 68.5265 106.825 68.4615 107.154 68.4615C107.598 68.4615 107.96 68.5744 108.241 68.8C108.521 69.0188 108.661 69.3265 108.661 69.7231C108.661 70.0034 108.6 70.2427 108.477 70.441C108.354 70.6325 108.172 70.8171 107.933 70.9949C107.735 71.1453 107.574 71.2991 107.451 71.4564C107.335 71.6068 107.277 71.7744 107.277 71.959C107.277 72.041 107.294 72.1402 107.328 72.2564H106.815ZM106.559 73.4974C106.559 73.3333 106.603 73.2034 106.692 73.1077C106.788 73.012 106.918 72.9641 107.082 72.9641C107.239 72.9641 107.362 73.012 107.451 73.1077C107.547 73.1966 107.595 73.3197 107.595 73.4769C107.595 73.641 107.547 73.7709 107.451 73.8667C107.355 73.9556 107.225 74 107.061 74C106.904 74 106.781 73.9556 106.692 73.8667C106.603 73.7709 106.559 73.6479 106.559 73.4974Z" fill="#121212"/>
<path d="M78.4205 49.4103L78.3692 49.9231H77.4359L77.3128 51.1538H78.2359L78.1846 51.6667H77.2615L77.1282 53H76.5744L76.7077 51.6667H75.4769L75.3436 53H74.7897L74.9231 51.6667H74L74.0513 51.1538H74.9744L75.1077 49.9231H74.1846L74.2359 49.4103H75.159L75.3026 48.0769H75.8462L75.7026 49.4103H76.9333L77.0769 48.0769H77.6308L77.4872 49.4103H78.4205ZM75.5282 51.1538H76.759L76.8821 49.9231H75.6513L75.5282 51.1538ZM82.4091 53H79.0244V52.5179C79.8791 51.8615 80.5116 51.2838 80.9219 50.7846C81.3321 50.2786 81.5373 49.8274 81.5373 49.4308C81.5373 49.2051 81.462 49.0171 81.3116 48.8667C81.168 48.7162 80.9219 48.641 80.5732 48.641C80.2586 48.641 79.9749 48.7026 79.7219 48.8256V49.4103H79.127V48.5179C79.6125 48.2239 80.1219 48.0769 80.6552 48.0769C81.127 48.0769 81.5031 48.1897 81.7834 48.4154C82.0638 48.6342 82.2039 48.9385 82.2039 49.3282C82.2039 49.7795 82.0022 50.2718 81.5988 50.8051C81.1954 51.3385 80.645 51.8821 79.9475 52.4359H82.4091V53Z" fill="#626262"/>
<path d="M78.4205 70.4103L78.3692 70.9231H77.4359L77.3128 72.1538H78.2359L78.1846 72.6667H77.2615L77.1282 74H76.5744L76.7077 72.6667H75.4769L75.3436 74H74.7897L74.9231 72.6667H74L74.0513 72.1538H74.9744L75.1077 70.9231H74.1846L74.2359 70.4103H75.159L75.3026 69.0769H75.8462L75.7026 70.4103H76.9333L77.0769 69.0769H77.6308L77.4872 70.4103H78.4205ZM75.5282 72.1538H76.759L76.8821 70.9231H75.6513L75.5282 72.1538ZM78.9219 74.441C79.3595 74.5915 79.8039 74.6667 80.2552 74.6667C80.7065 74.6667 81.0552 74.5573 81.3014 74.3385C81.5475 74.1265 81.6706 73.8188 81.6706 73.4154C81.6706 73.0256 81.5544 72.735 81.3219 72.5436C81.0962 72.3521 80.7578 72.2564 80.3065 72.2564H79.9475V71.7128H80.1732C80.5629 71.7128 80.8603 71.6171 81.0655 71.4256C81.2774 71.2342 81.3834 70.9504 81.3834 70.5744C81.3834 70.2667 81.3014 70.0342 81.1373 69.8769C80.9732 69.7197 80.7338 69.641 80.4193 69.641C80.0979 69.641 79.8039 69.706 79.5373 69.8359V70.4103H78.9424V69.5179C79.4142 69.2239 79.9167 69.0769 80.4501 69.0769C80.9492 69.0769 81.3458 69.2068 81.6398 69.4667C81.9407 69.7265 82.0911 70.0752 82.0911 70.5128C82.0911 71.1419 81.7595 71.6 81.0962 71.8872V71.8974C81.5133 72 81.8347 72.1812 82.0603 72.441C82.2928 72.694 82.4091 73.012 82.4091 73.3949C82.4091 73.9419 82.2039 74.3829 81.7937 74.7179C81.3903 75.0598 80.8672 75.2308 80.2244 75.2308C79.7732 75.2308 79.339 75.1624 78.9219 75.0256V74.441Z" fill="#626262"/>
<defs>
<clipPath id="clip0_18_2">
<rect width="48" height="48" fill="white" transform="translate(9 19)"/>
</clipPath>
</defs>
</svg>
